<svg width="367" height="115" viewBox="0 0 367 115" fill="none" xmlns="http://www.w3.org/2000/svg">
<path d="M0.679688 60.2H60.6797V0.2H0.679688V60.2ZM79.3777 56V12.26H97.0777C99.3977 12.26 101.498 12.58 103.378 13.22C105.258 13.82 106.858 14.72 108.178 15.92C109.538 17.08 110.558 18.52 111.238 20.24C111.958 21.96 112.318 23.94 112.318 26.18C112.318 28.98 111.698 31.44 110.458 33.56C109.258 35.64 107.518 37.26 105.238 38.42C102.958 39.54 100.218 40.1 97.0177 40.1H85.1977V34.88H96.0577C97.9377 34.88 99.5977 34.58 101.038 33.98C102.478 33.38 103.598 32.44 104.398 31.16C105.238 29.88 105.658 28.28 105.658 26.36C105.658 24.4 105.238 22.8 104.398 21.56C103.598 20.32 102.478 19.4 101.038 18.8C99.5977 18.2 97.9377 17.9 96.0577 17.9H84.8977L85.9177 16.88V56H79.3777ZM138.467 56.54C135.227 56.54 132.287 56.04 129.647 55.04C127.007 54 124.727 52.5 122.807 50.54C120.887 48.58 119.427 46.22 118.427 43.46C117.427 40.7 116.927 37.6 116.927 34.16C116.927 30.68 117.427 27.56 118.427 24.8C119.467 22.04 120.927 19.7 122.807 17.78C124.727 15.82 127.007 14.34 129.647 13.34C132.287 12.3 135.227 11.78 138.467 11.78C141.747 11.78 144.707 12.3 147.347 13.34C149.987 14.34 152.247 15.82 154.127 17.78C156.047 19.7 157.507 22.04 158.507 24.8C159.547 27.56 160.067 30.68 160.067 34.16C160.067 37.64 159.547 40.76 158.507 43.52C157.507 46.28 156.047 48.64 154.127 50.6C152.207 52.52 149.927 54 147.287 55.04C144.647 56.04 141.707 56.54 138.467 56.54ZM138.467 50.9C141.507 50.9 144.127 50.24 146.327 48.92C148.567 47.56 150.287 45.64 151.487 43.16C152.727 40.68 153.347 37.68 153.347 34.16C153.347 31.48 152.987 29.12 152.267 27.08C151.587 25 150.587 23.24 149.267 21.8C147.987 20.36 146.427 19.28 144.587 18.56C142.787 17.8 140.747 17.42 138.467 17.42C135.427 17.42 132.807 18.08 130.607 19.4C128.407 20.72 126.687 22.62 125.447 25.1C124.247 27.58 123.647 30.6 123.647 34.16C123.647 36.8 123.987 39.16 124.667 41.24C125.387 43.32 126.387 45.08 127.667 46.52C128.947 47.92 130.487 49 132.287 49.76C134.127 50.52 136.187 50.9 138.467 50.9ZM174.745 56V17.96H161.005V12.26H195.145V17.96H181.285V56H174.745ZM201.018 56V12.26H207.558V51.62L206.298 50.12H228.438V56H201.018ZM250.967 56.54C247.727 56.54 244.787 56.04 242.147 55.04C239.507 54 237.227 52.5 235.307 50.54C233.387 48.58 231.927 46.22 230.927 43.46C229.927 40.7 229.427 37.6 229.427 34.16C229.427 30.68 229.927 27.56 230.927 24.8C231.967 22.04 233.427 19.7 235.307 17.78C237.227 15.82 239.507 14.34 242.147 13.34C244.787 12.3 247.727 11.78 250.967 11.78C254.247 11.78 257.207 12.3 259.847 13.34C262.487 14.34 264.747 15.82 266.627 17.78C268.547 19.7 270.007 22.04 271.007 24.8C272.047 27.56 272.567 30.68 272.567 34.16C272.567 37.64 272.047 40.76 271.007 43.52C270.007 46.28 268.547 48.64 266.627 50.6C264.707 52.52 262.427 54 259.787 55.04C257.147 56.04 254.207 56.54 250.967 56.54ZM250.967 50.9C254.007 50.9 256.627 50.24 258.827 48.92C261.067 47.56 262.787 45.64 263.987 43.16C265.227 40.68 265.847 37.68 265.847 34.16C265.847 31.48 265.487 29.12 264.767 27.08C264.087 25 263.087 23.24 261.767 21.8C260.487 20.36 258.927 19.28 257.087 18.56C255.287 17.8 253.247 17.42 250.967 17.42C247.927 17.42 245.307 18.08 243.107 19.4C240.907 20.72 239.187 22.62 237.947 25.1C236.747 27.58 236.147 30.6 236.147 34.16C236.147 36.8 236.487 39.16 237.167 41.24C237.887 43.32 238.887 45.08 240.167 46.52C241.447 47.92 242.987 49 244.787 49.76C246.627 50.52 248.687 50.9 250.967 50.9ZM299.656 56.54C296.416 56.54 293.476 56.02 290.836 54.98C288.236 53.94 285.976 52.46 284.056 50.54C282.176 48.58 280.736 46.22 279.736 43.46C278.736 40.7 278.236 37.6 278.236 34.16C278.236 30.68 278.736 27.56 279.736 24.8C280.736 22.04 282.196 19.7 284.116 17.78C286.036 15.82 288.296 14.34 290.896 13.34C293.496 12.3 296.416 11.78 299.656 11.78C303.256 11.78 306.456 12.4 309.256 13.64C312.096 14.88 314.416 16.64 316.216 18.92C318.016 21.16 319.116 23.82 319.516 26.9H312.916C312.516 25.06 311.716 23.44 310.516 22.04C309.356 20.6 307.856 19.48 306.016 18.68C304.176 17.84 302.056 17.42 299.656 17.42C296.656 17.42 294.036 18.08 291.796 19.4C289.596 20.72 287.896 22.62 286.696 25.1C285.536 27.58 284.956 30.6 284.956 34.16C284.956 36.8 285.296 39.16 285.976 41.24C286.656 43.32 287.636 45.08 288.916 46.52C290.196 47.92 291.736 49 293.536 49.76C295.376 50.52 297.416 50.9 299.656 50.9C302.016 50.9 304.116 50.5 305.956 49.7C307.836 48.9 309.376 47.78 310.576 46.34C311.776 44.86 312.556 43.14 312.916 41.18L319.516 41.24C319.156 44.32 318.076 47.02 316.276 49.34C314.516 51.62 312.196 53.4 309.316 54.68C306.476 55.92 303.256 56.54 299.656 56.54ZM327.171 56V12.26H333.711V35.18L354.471 12.26H362.391L345.531 30.44L362.691 56H354.951L341.091 35.18L333.711 42.98V56H327.171ZM43.5766 85.56C43.5766 83.4 43.2766 81.62 42.6766 80.22C42.0766 78.78 41.2166 77.72 40.0966 77.04C39.0166 76.32 37.7166 75.98 36.1966 76.02H33.3166V104.16C33.3166 105.24 33.2966 106.28 33.2566 107.28C33.2166 108.28 33.1566 109.04 33.0766 109.56C33.7566 109.48 34.6166 109.44 35.6566 109.44C36.7366 109.4 37.4766 109.38 37.8766 109.38V114H20.3566V110.04C21.2766 110 22.0366 109.88 22.6366 109.68C23.2766 109.48 23.7566 109.02 24.0766 108.3C24.4366 107.58 24.6166 106.42 24.6166 104.82V76.08H21.8566C19.5766 76.12 17.7766 76.9 16.4566 78.42C15.1366 79.94 14.4766 82.32 14.4766 85.56H10.5166L10.8166 72H47.1766L47.5366 85.56H43.5766ZM71.9801 99.54C71.9801 97.86 71.7201 96.64 71.2001 95.88C70.6801 95.12 69.9601 94.66 69.0401 94.5C68.1601 94.3 67.1801 94.22 66.1001 94.26L64.5401 94.32V104.16C64.5401 105.24 64.5201 106.26 64.4801 107.22C64.4401 108.18 64.3801 108.92 64.3001 109.44H72.3401C73.5401 109.44 74.7001 109.18 75.8201 108.66C76.9401 108.1 77.8601 107.2 78.5801 105.96C79.3001 104.68 79.6601 102.96 79.6601 100.8H83.5601L83.2601 114H51.5801V110.04C52.5001 110 53.2601 109.88 53.8601 109.68C54.5001 109.48 54.9801 109.02 55.3001 108.3C55.6601 107.58 55.8401 106.42 55.8401 104.82V81.84C55.8401 80.76 55.8601 79.72 55.9001 78.72C55.9801 77.72 56.0401 76.96 56.0801 76.44C55.4401 76.48 54.6401 76.52 53.6801 76.56C52.7201 76.56 52.0201 76.58 51.5801 76.62V72H81.5801L81.9401 83.64H77.9801C77.9801 81.44 77.6001 79.78 76.8401 78.66C76.0801 77.54 75.1401 76.8 74.0201 76.44C72.9001 76.04 71.8001 75.86 70.7201 75.9L68.5601 75.96C67.7201 75.96 67.0001 76.08 66.4001 76.32C65.8001 76.52 65.3401 77 65.0201 77.76C64.7001 78.48 64.5401 79.62 64.5401 81.18V90.18H71.5601L71.3201 84.96H75.9401V99.54H71.9801ZM110.501 114.6C109.141 111.28 107.781 107.98 106.421 104.7C105.101 101.42 103.761 98.14 102.401 94.86C102.081 94.1 101.661 93.04 101.141 91.68C100.661 90.28 100.141 88.68 99.5815 86.88C99.0615 85.08 98.5815 83.22 98.1415 81.3C98.2215 83.54 98.2815 85.66 98.3215 87.66C98.3615 89.62 98.3615 91.5 98.3215 93.3C98.3215 94.18 98.3215 95.08 98.3215 96C98.3215 96.92 98.3015 97.84 98.2615 98.76C98.2615 99.64 98.2615 100.54 98.2615 101.46C98.2615 102.34 98.2615 103.24 98.2615 104.16C98.2615 105.24 98.2215 106.28 98.1415 107.28C98.1015 108.28 98.0415 109.04 97.9615 109.56C98.6415 109.48 99.4615 109.44 100.421 109.44C101.421 109.4 102.121 109.38 102.521 109.38V114H88.8415V110.04C89.7615 110 90.5215 109.88 91.1215 109.68C91.7615 109.48 92.2415 109.02 92.5615 108.3C92.9215 107.58 93.1015 106.42 93.1015 104.82L93.4615 81.84C93.5015 80.76 93.5415 79.72 93.5815 78.72C93.6215 77.72 93.6615 76.96 93.7015 76.44C93.0615 76.48 92.2615 76.52 91.3015 76.56C90.3415 76.56 89.6415 76.58 89.2015 76.62V72H102.461L111.521 95.22C111.881 96.14 112.281 97.22 112.721 98.46C113.161 99.66 113.581 100.84 113.981 102C114.381 103.12 114.681 104.02 114.881 104.7H114.941C115.461 103.3 115.941 101.94 116.381 100.62C116.821 99.3 117.281 98.02 117.761 96.78C119.321 92.62 120.861 88.48 122.381 84.36C123.941 80.24 125.501 76.12 127.061 72H140.921V75.96C140.041 76 139.261 76.12 138.581 76.32C137.901 76.52 137.381 76.98 137.021 77.7C136.701 78.38 136.561 79.54 136.601 81.18L137.501 104.16C137.581 105.24 137.581 106.28 137.501 107.28C137.421 108.28 137.341 109.04 137.261 109.56C137.941 109.48 138.761 109.44 139.721 109.44C140.721 109.4 141.421 109.38 141.821 109.38V114H125.141V110.04C126.061 110 126.841 109.88 127.481 109.68C128.161 109.48 128.661 109.02 128.981 108.3C129.341 107.58 129.481 106.42 129.401 104.82L128.921 92.1C128.921 91.62 128.881 90.8 128.801 89.64C128.721 88.44 128.641 87.14 128.561 85.74C128.521 84.3 128.481 82.96 128.441 81.72C128.321 82 128.201 82.28 128.081 82.56C127.961 82.8 127.861 83.06 127.781 83.34L116.081 114.6H110.501ZM147.322 110.04C148.242 110 149.002 109.88 149.602 109.68C150.242 109.48 150.722 109.02 151.042 108.3C151.402 107.58 151.582 106.42 151.582 104.82V81.84C151.582 80.76 151.602 79.72 151.642 78.72C151.722 77.72 151.782 76.96 151.822 76.44C151.182 76.48 150.382 76.52 149.422 76.56C148.462 76.56 147.762 76.58 147.322 76.62V72C150.162 71.96 153.002 71.94 155.842 71.94C158.682 71.94 161.522 71.92 164.362 71.88C167.882 71.84 170.942 72.3 173.542 73.26C176.182 74.22 178.202 75.7 179.602 77.7C181.042 79.7 181.722 82.3 181.642 85.5C181.602 87.1 181.222 88.68 180.502 90.24C179.782 91.76 178.722 93.16 177.322 94.44C175.922 95.68 174.162 96.7 172.042 97.5C169.922 98.3 167.442 98.74 164.602 98.82C163.722 98.86 162.942 98.88 162.262 98.88C161.622 98.88 160.962 98.86 160.282 98.82V104.1C160.282 105.22 160.262 106.28 160.222 107.28C160.182 108.28 160.122 109.04 160.042 109.56C160.482 109.52 161.042 109.5 161.722 109.5C162.402 109.46 163.062 109.44 163.702 109.44C164.382 109.4 164.862 109.38 165.142 109.38V114H147.322V110.04ZM160.282 94.32C160.722 94.36 161.162 94.4 161.602 94.44C162.042 94.48 162.502 94.5 162.982 94.5C165.182 94.5 166.962 94.14 168.322 93.42C169.722 92.66 170.742 91.58 171.382 90.18C172.022 88.74 172.342 87 172.342 84.96C172.342 82.96 172.062 81.36 171.502 80.16C170.982 78.96 170.302 78.08 169.462 77.52C168.622 76.92 167.742 76.54 166.822 76.38C165.902 76.18 165.062 76.08 164.302 76.08C163.462 76.08 162.742 76.18 162.142 76.38C161.542 76.58 161.082 77.02 160.762 77.7C160.442 78.38 160.282 79.42 160.282 80.82V94.32ZM185.291 114V110.04C186.211 110 186.971 109.88 187.571 109.68C188.211 109.48 188.691 109.02 189.011 108.3C189.371 107.58 189.551 106.42 189.551 104.82V81.84C189.551 80.76 189.571 79.72 189.611 78.72C189.691 77.72 189.751 76.96 189.791 76.44C189.151 76.48 188.351 76.52 187.391 76.56C186.431 76.56 185.731 76.58 185.291 76.62V72H202.511V75.96C201.631 76 200.871 76.12 200.231 76.32C199.591 76.52 199.091 76.98 198.731 77.7C198.411 78.38 198.251 79.54 198.251 81.18V104.16C198.251 105.24 198.231 106.26 198.191 107.22C198.151 108.18 198.091 108.92 198.011 109.44H206.051C208.411 109.44 210.251 108.62 211.571 106.98C212.931 105.34 213.611 102.88 213.611 99.6H217.631L217.271 114H185.291ZM219.504 114V109.86C220.624 109.86 221.524 109.54 222.204 108.9C222.884 108.26 223.444 107.42 223.884 106.38C224.364 105.34 224.824 104.22 225.264 103.02L236.964 70.92H241.164L253.944 103.62C254.184 104.22 254.504 105.14 254.904 106.38C255.304 107.58 255.544 108.64 255.624 109.56C256.304 109.48 256.944 109.44 257.544 109.44C258.184 109.4 258.704 109.38 259.104 109.38V114H242.964V110.04C244.084 110.04 244.844 109.82 245.244 109.38C245.684 108.9 245.884 108.26 245.844 107.46C245.804 106.66 245.584 105.76 245.184 104.76L243.984 101.46L230.964 101.7L230.004 104.52C229.804 105.04 229.504 105.82 229.104 106.86C228.744 107.86 228.404 108.7 228.084 109.38C228.724 109.3 229.484 109.26 230.364 109.26C231.284 109.22 231.944 109.2 232.344 109.2V114H219.504ZM232.464 97.2H242.484L239.724 89.7C239.204 88.26 238.744 86.82 238.344 85.38C237.944 83.9 237.644 82.6 237.444 81.48H237.384C237.224 82.16 236.984 83.18 236.664 84.54C236.344 85.9 235.844 87.52 235.164 89.4L232.464 97.2ZM290.139 85.56C290.139 83.4 289.839 81.62 289.239 80.22C288.639 78.78 287.779 77.72 286.659 77.04C285.579 76.32 284.279 75.98 282.759 76.02H279.879V104.16C279.879 105.24 279.859 106.28 279.819 107.28C279.779 108.28 279.719 109.04 279.639 109.56C280.319 109.48 281.179 109.44 282.219 109.44C283.299 109.4 284.039 109.38 284.439 109.38V114H266.919V110.04C267.839 110 268.599 109.88 269.199 109.68C269.839 109.48 270.319 109.02 270.639 108.3C270.999 107.58 271.179 106.42 271.179 104.82V76.08H268.419C266.139 76.12 264.339 76.9 263.019 78.42C261.699 79.94 261.039 82.32 261.039 85.56H257.079L257.379 72H293.739L294.099 85.56H290.139ZM318.543 99.54C318.543 97.86 318.283 96.64 317.763 95.88C317.243 95.12 316.523 94.66 315.603 94.5C314.723 94.3 313.743 94.22 312.663 94.26L311.103 94.32V104.16C311.103 105.24 311.083 106.26 311.043 107.22C311.003 108.18 310.943 108.92 310.863 109.44H318.903C320.103 109.44 321.263 109.18 322.383 108.66C323.503 108.1 324.423 107.2 325.143 105.96C325.863 104.68 326.223 102.96 326.223 100.8H330.123L329.823 114H298.143V110.04C299.063 110 299.823 109.88 300.423 109.68C301.063 109.48 301.543 109.02 301.863 108.3C302.223 107.58 302.403 106.42 302.403 104.82V81.84C302.403 80.76 302.423 79.72 302.463 78.72C302.543 77.72 302.603 76.96 302.643 76.44C302.003 76.48 301.203 76.52 300.243 76.56C299.283 76.56 298.583 76.58 298.143 76.62V72H328.143L328.503 83.64H324.543C324.543 81.44 324.163 79.78 323.403 78.66C322.643 77.54 321.703 76.8 320.583 76.44C319.463 76.04 318.363 75.86 317.283 75.9L315.123 75.96C314.283 75.96 313.563 76.08 312.963 76.32C312.363 76.52 311.903 77 311.583 77.76C311.263 78.48 311.103 79.62 311.103 81.18V90.18H318.123L317.883 84.96H322.503V99.54H318.543ZM359.824 85.44C359.464 83.2 358.824 81.34 357.904 79.86C356.984 78.34 355.804 77.2 354.364 76.44C352.964 75.68 351.324 75.32 349.444 75.36C347.724 75.36 346.204 75.84 344.884 76.8C343.604 77.76 342.964 79 342.964 80.52C342.964 81.76 343.304 82.84 343.984 83.76C344.704 84.68 345.784 85.54 347.224 86.34C348.664 87.14 350.484 88 352.684 88.92C354.204 89.52 355.764 90.22 357.364 91.02C358.964 91.82 360.444 92.78 361.804 93.9C363.164 94.98 364.264 96.26 365.104 97.74C365.944 99.18 366.364 100.88 366.364 102.84C366.364 105.2 365.724 107.3 364.444 109.14C363.164 110.98 361.364 112.42 359.044 113.46C356.764 114.46 354.084 114.96 351.004 114.96C349.404 114.96 347.664 114.7 345.784 114.18C343.944 113.7 342.204 112.98 340.564 112.02L340.744 114.54H336.124V100.5H340.084C340.644 103.86 341.924 106.4 343.924 108.12C345.964 109.8 348.384 110.64 351.184 110.64C352.624 110.64 353.884 110.38 354.964 109.86C356.044 109.34 356.884 108.66 357.484 107.82C358.084 106.94 358.384 106 358.384 105C358.384 103.6 357.884 102.44 356.884 101.52C355.924 100.6 354.704 99.82 353.224 99.18C351.784 98.54 350.304 97.92 348.784 97.32C346.864 96.52 345.064 95.68 343.384 94.8C341.744 93.88 340.304 92.84 339.064 91.68C337.824 90.52 336.864 89.2 336.184 87.72C335.504 86.2 335.164 84.46 335.164 82.5C335.164 81.26 335.404 79.98 335.884 78.66C336.364 77.3 337.144 76.06 338.224 74.94C339.304 73.78 340.744 72.84 342.544 72.12C344.344 71.4 346.564 71.04 349.204 71.04C350.804 71.04 352.544 71.28 354.424 71.76C356.344 72.24 357.984 72.96 359.344 73.92L359.104 71.46H363.784V85.44H359.824Z" fill="#292929"/>
</svg>
